<?xml version="1.0" standalone="no"?>
<!DOCTYPE svg PUBLIC "-//W3C//DTD SVG 20010904//EN"
 "http://www.w3.org/TR/2001/REC-SVG-20010904/DTD/svg10.dtd">
<svg version="1.0" xmlns="http://www.w3.org/2000/svg"
 width="384.000000pt" height="384.000000pt" viewBox="0 0 384.000000 384.000000"
 preserveAspectRatio="xMidYMid meet">
<metadata>
Created by potrace 1.14, written by Peter Selinger 2001-2017
</metadata>
<g transform="translate(0.000000,384.000000) scale(0.100000,-0.100000)"
fill="#000000" stroke="none">
<path d="M948 3025 c-2 -2 -39 -5 -84 -9 -85 -6 -179 -22 -195 -32 -18 -11
-26 -49 -16 -74 43 -107 77 -161 152 -236 39 -39 111 -100 143 -120 4 -2 -236
-955 -249 -983 -17 -39 -80 -115 -131 -156 -32 -25 -48 -46 -48 -61 0 -33 128
-326 151 -346 11 -9 29 -15 42 -13 22 3 99 10 227 20 145 12 159 19 161 84 1
56 8 82 38 148 42 88 89 134 274 266 237 170 336 278 353 389 4 21 10 38 14
38 14 0 89 -79 105 -110 16 -30 15 -35 -20 -132 -28 -79 -88 -294 -110 -398
-16 -71 -65 -312 -69 -340 -3 -19 -8 -46 -11 -60 -7 -34 -26 -148 -31 -185 -2
-16 -8 -59 -13 -95 -14 -97 -21 -153 -26 -217 -3 -32 -7 -72 -10 -89 -2 -17
-7 -94 -10 -172 l-6 -142 54 0 53 0 3 103 c1 56 4 120 6 142 2 22 7 69 10 105
8 91 29 257 40 320 2 14 6 43 9 65 4 22 8 51 11 65 7 37 14 80 21 120 38 231
136 635 184 756 18 43 32 96 32 117 -1 81 -80 184 -200 262 -50 33 -61 46 -76
89 -104 294 -230 369 -403 240 -17 -13 -37 -40 -43 -60 -20 -59 -5 -100 58
-163 66 -65 111 -92 237 -136 l90 -32 -2 -47 c-1 -52 -31 -110 -85 -166 -50
-53 -86 -81 -268 -210 -63 -45 -132 -98 -154 -118 -78 -75 -150 -212 -155
-296 -1 -29 -13 -32 -151 -42 -52 -3 -98 -8 -101 -10 -11 -6 -24 17 -69 123
l-43 103 62 64 c59 62 114 157 125 216 2 14 37 153 76 310 39 157 74 294 76
305 2 11 23 94 47 185 23 91 41 173 39 183 -2 9 -31 36 -65 59 -82 55 -139
109 -181 172 -48 71 -48 78 -1 84 76 9 300 5 342 -7 l42 -12 -21 -40 c-60
-116 30 -339 139 -339 73 0 119 45 148 144 21 71 21 147 1 188 -9 17 -13 34
-10 37 13 13 233 4 314 -13 178 -36 414 -138 570 -244 96 -67 124 -86 130 -92
3 -3 25 -21 50 -40 112 -86 325 -298 411 -409 32 -42 63 -81 68 -87 51 -62
262 -452 326 -604 15 -36 36 -82 46 -103 10 -22 19 -44 19 -49 0 -6 9 -29 19
-52 51 -106 183 -495 246 -719 36 -129 87 -346 100 -425 7 -41 8 -42 46 -42
l39 0 0 86 c0 109 -46 300 -157 654 -44 138 -163 467 -196 541 -8 18 -35 79
-58 134 -114 265 -282 562 -414 730 -70 89 -231 256 -343 355 -302 267 -648
440 -967 485 -77 11 -253 6 -317 -9 -62 -14 -68 -14 -140 9 -41 13 -111 27
-154 30 -44 4 -94 8 -111 9 -18 2 -34 2 -35 1z m408 -206 c14 -16 19 -35 18
-75 -2 -54 -31 -130 -49 -128 -18 2 -54 80 -59 128 -4 42 -2 51 21 72 32 29
44 30 69 3z m170 -511 c31 -37 99 -177 90 -186 -11 -10 -173 77 -205 110 -39
40 -37 65 9 89 50 27 74 24 106 -13z"/>
<path d="M1215 1994 c-66 -33 -110 -112 -103 -184 3 -31 6 -35 28 -32 30 3 83
38 100 65 16 26 25 129 14 150 -9 15 -12 15 -39 1z"/>
</g>
</svg>
