<svg width="50" height="50" viewBox="0 0 50 50" fill="none" xmlns="http://www.w3.org/2000/svg">
<g clip-path="url(#clip0_3_89)">
<path fill-rule="evenodd" clip-rule="evenodd" d="M0 0H50V50H0V0ZM29.7507 41.1639C29.7507 40.9886 29.76 40.836 29.7713 40.8247C29.7826 40.8134 29.9005 40.8042 30.0334 40.8042H30.2749V42.5H28.7332V41.4825H29.7507V41.1639ZM32.0632 41.6727C32.0632 41.2176 32.0725 40.836 32.0838 40.8247C32.0951 40.8134 32.2061 40.8042 32.3305 40.8042H32.5566V42.0992H33.1424V40.8042H33.6049V42.5H32.0632V41.6727ZM15.4204 11.5541C24.6087 3.6608 33.0211 9.08747 36.0788 12.7875L38.4298 10.7833C39.2931 9.70414 38.584 9.15171 38.1215 9.01039C37.1348 9.01039 36.9652 9.75553 37.0037 10.1281H35.7704C35.6548 9.54998 35.809 8.33977 37.3506 8.12393C39.2777 7.85414 39.586 8.39372 40.1256 9.70414C40.5573 10.7525 38.4555 12.4535 37.3506 13.1729H40.1256V14.3677H37.8902C39.7017 19.6865 36.6954 20.5729 33.6506 21.1896C30.686 21.79 30.595 21.8752 29.8852 22.5396C29.4828 22.9162 28.8816 23.4789 27.4454 24.4271C24.2696 26.5238 21.9339 24.7354 21.1631 23.5792C19.0356 19.9717 20.9704 17.708 22.2037 17.0271L31.9162 12.3906C29.9835 10.851 27.0145 9.47215 23.4756 10.2823C17.0777 11.7469 14.7266 16.1792 14.7266 19.7635C14.7266 23.7176 18.8506 31.1618 26.5975 29.9771C32.795 29.0294 35.0638 24.5204 35.4235 22.3844C37.4277 21.9835 38.2628 21.3438 38.4298 21.074C38.3399 24.4238 35.8475 31.4173 26.5975 32.593C22.1421 32.6476 17.8178 31.5119 15.4204 28.5896C9.22285 21.0354 12.8381 14.0851 15.4204 11.5541ZM10.911 38.0709H14.3797C14.3797 35.6967 12.8638 35.2316 12.1058 35.2959C9.73161 35.2959 9.39501 37.1459 9.52348 38.0709C9.62626 38.7646 10.2635 40.1521 11.9902 40.1521C13.7168 40.1521 14.2256 39.073 14.2641 38.5334H13.083C12.9645 38.8283 12.6583 39.15 11.9902 39.15C11.0652 39.15 10.8853 38.4306 10.911 38.0709ZM16.2297 36.375V36.8375H14.3412V36.4907C14.46 36.0747 14.7163 35.9336 14.9863 35.7849C15.0666 35.7406 15.1482 35.6957 15.2277 35.6427C15.5745 35.4115 15.8829 35.1417 15.4204 34.8719C15.0504 34.6561 14.9579 35.1417 14.9579 35.4115H14.4183C14.4568 34.3709 15.0735 34.1396 15.7287 34.4094C16.3839 34.6792 16.3454 35.5657 15.7672 35.874C15.3047 36.1207 15.1634 36.3108 15.1506 36.375H16.2297ZM21.9725 36.2594H20.7777C20.6006 35.2979 19.7884 35.2396 19.1975 35.3775C19.0215 35.4139 18.7919 35.5009 18.6809 35.6427C18.5319 35.8267 18.442 36.2243 19.2745 36.3427C19.3415 36.3571 19.4122 36.3712 19.4859 36.3859C19.6368 36.416 19.8 36.4486 19.9683 36.4907C20.8933 36.7219 22.1266 37.1459 22.1266 38.225C22.1266 39.3042 21.3943 40.1136 19.2745 40.1136C17.5787 40.1136 17.1547 38.6233 17.1547 37.8782H18.3495C18.3367 38.2507 18.5962 38.9959 19.737 38.9959C21.1631 38.9959 20.8896 38.1663 20.7777 38.08C20.5054 37.8321 19.8953 37.6474 19.1975 37.5698C18.0875 37.4465 17.5787 36.7733 17.4631 36.4521C17.2447 35.707 17.3552 34.2167 19.5443 34.2167C21.7335 34.2167 22.0752 35.5785 21.9725 36.2594ZM23.7454 41.5011H22.5121V35.7584H23.7839V35.8589C24.7285 35.4948 25.4495 35.727 26.0579 36.2594C26.6746 36.799 26.7516 39.2271 25.7496 39.8052C24.9479 40.2677 24.0794 40.1007 23.7454 39.9594V41.5011ZM31.1454 40.075V35.7584H32.4173V35.9125C32.7256 35.5734 33.4708 35.6684 33.8048 35.7584V36.9532C32.9723 36.5832 32.5329 36.9532 32.4173 37.1844V40.075H31.1454ZM34.6142 35.7584V34.7948H35.809V35.7584H36.4642V36.7219H35.809V38.9959C35.9323 39.15 36.3742 39.0601 36.5798 38.9959V40.075H35.5006C34.7915 40.075 34.6142 39.407 34.6142 39.073V36.7219H34.1131V35.7584H34.6142ZM40.2445 37.2537H39.3739C39.2449 36.5498 38.6531 36.5072 38.2224 36.6081C38.0942 36.6348 37.9269 36.6984 37.8461 36.8023C37.7375 36.937 37.672 37.228 38.2786 37.3147C38.3274 37.3252 38.3789 37.3355 38.4326 37.3463C38.5426 37.3683 38.6615 37.3922 38.7841 37.423C39.4582 37.5922 40.3569 37.9026 40.3569 38.6926C40.3569 39.4826 39.8233 40.075 38.2786 40.075C37.0429 40.075 36.734 38.9841 36.734 38.4387H37.6046C37.5952 38.7114 37.7843 39.2568 38.6156 39.2568C39.6548 39.2568 39.4555 38.6496 39.3739 38.5864C39.1755 38.405 38.7309 38.2697 38.2224 38.2129C37.4136 38.1227 37.0429 37.6299 36.9586 37.3948C36.7995 36.8493 36.88 35.7584 38.4752 35.7584C40.0704 35.7584 40.3194 36.7552 40.2445 37.2537ZM28.7944 35.7198C27.0677 35.5348 26.6103 37.0816 26.5975 37.8782C26.5975 38.4948 26.8287 40.1136 28.7944 40.1136C30.76 40.1136 30.8371 38.4177 30.8371 37.8782C30.8371 37.8536 30.8373 37.8273 30.8376 37.7994C30.8429 37.2147 30.8545 35.9406 28.7944 35.7198ZM27.0682 42.5V40.8042H28.5482V41.2667H27.5307V41.4517H28.5482V41.9142H27.5307V42.0992H28.5482V42.5H27.0682ZM30.3982 41.2667V40.8042H31.9399V41.2667H30.3982ZM33.7283 41.2667V40.8042H35.1158V41.2667H34.6533V42.5H34.2216V41.2667H33.7283ZM35.2391 42.5V40.8042H35.7016V42.0992H36.2566V40.8042H36.7499V42.5H35.2391ZM36.8733 42.5V40.8042H38.3533V41.9142H37.3358V42.5H36.8733ZM38.5074 42.5V40.8042H39.9874V41.2667H38.9699V41.4517H39.9874V41.9142H38.9699V42.0992H39.9874V42.5H38.5074ZM30.3982 42.5V41.4517H31.9399V41.9142H30.9224V42.5H30.3982ZM37.8908 42.5V42.0067H38.3533V42.5H37.8908Z" fill="#1E638C"/>
<path d="M23.7839 37.1073V38.8417C24.1437 39.1243 24.9325 39.4661 25.21 38.5719C25.5569 37.4542 25.0558 35.874 23.7839 37.1073Z" fill="#1E638C"/>
<path fill-rule="evenodd" clip-rule="evenodd" d="M33.0725 16.1792C33.5621 16.1792 33.959 15.7823 33.959 15.2927C33.959 14.8031 33.5621 14.4062 33.0725 14.4062C32.5829 14.4062 32.186 14.8031 32.186 15.2927C32.186 15.7823 32.5829 16.1792 33.0725 16.1792ZM35.3079 17.1042C35.7975 17.1042 36.1944 16.7073 36.1944 16.2177C36.1944 15.7281 35.7975 15.3312 35.3079 15.3312C34.8183 15.3312 34.4215 15.7281 34.4215 16.2177C34.4215 16.7073 34.8183 17.1042 35.3079 17.1042ZM34.5371 19.3396C35.0267 19.3396 35.4235 18.9427 35.4235 18.4531C35.4235 17.9635 35.0267 17.5667 34.5371 17.5667C34.0475 17.5667 33.6506 17.9635 33.6506 18.4531C33.6506 18.9427 34.0475 19.3396 34.5371 19.3396ZM32.1475 18.4917C32.6371 18.4917 33.0339 18.0948 33.0339 17.6052C33.0339 17.1156 32.6371 16.7187 32.1475 16.7187C31.6579 16.7187 31.261 17.1156 31.261 17.6052C31.261 18.0948 31.6579 18.4917 32.1475 18.4917ZM30.9142 20.5729C31.1909 20.5729 31.4152 20.3486 31.4152 20.0719C31.4152 19.7952 31.1909 19.5708 30.9142 19.5708C30.6374 19.5708 30.4131 19.7952 30.4131 20.0719C30.4131 20.3486 30.6374 20.5729 30.9142 20.5729ZM23.75 20.2183C23.3378 20.4122 23.1608 20.9035 23.3548 21.3157C23.5487 21.7279 24.04 21.9048 24.4522 21.7109L25.5913 21.175L26.1272 22.3141C26.3211 22.7263 26.8125 22.9032 27.2246 22.7093C27.6368 22.5154 27.8138 22.0241 27.6199 21.6119L27.0839 20.4728L28.2231 19.9369C28.6352 19.743 28.8122 19.2516 28.6183 18.8394C28.4243 18.4273 27.933 18.2503 27.5208 18.4442L26.3817 18.9801L25.8458 17.841C25.6519 17.4289 25.1606 17.2519 24.7484 17.4458C24.3362 17.6397 24.1593 18.1311 24.3532 18.5433L24.8891 19.6824L23.75 20.2183ZM10.911 37.1459H12.9152C12.8766 36.8632 12.6377 36.298 11.9902 36.298C11.1808 36.298 10.911 36.799 10.911 37.1459ZM27.7923 37.8994C27.7979 37.4538 27.9974 36.5884 28.7507 36.6919C29.6494 36.8154 29.6443 37.5282 29.642 37.8554C29.6419 37.8709 29.6418 37.8857 29.6418 37.8994C29.6418 38.2013 29.6082 39.15 28.7507 39.15C27.8932 39.15 27.7923 38.2444 27.7923 37.8994ZM37.8908 41.2667V41.4517H37.3358V41.2667H37.8908ZM29.7507 41.9142V42.0992H29.1957V41.9142H29.7507Z" fill="#1E638C"/>
</g>
<defs>
<clipPath id="clip0_3_89">
<rect width="50" height="50" fill="white"/>
</clipPath>
</defs>
</svg>
