<svg width="50" height="50" viewBox="0 0 50 50" fill="none" xmlns="http://www.w3.org/2000/svg">
<g clip-path="url(#clip0_3_85)">
<path fill-rule="evenodd" clip-rule="evenodd" d="M0 0H50V50H0V0ZM29.9209 14.0967C29.9209 14.0967 29.8632 14.4661 29.6959 14.673H20.1234C20.0188 14.5059 19.8951 14.0967 19.8951 14.0967H29.9209ZM29.49 15.0212C29.49 15.0212 29.2998 15.3507 29.1137 15.5147H20.6415C20.4116 15.268 20.3085 15.0212 20.3085 15.0212H29.49ZM28.8031 15.9048C28.8031 15.9048 28.6159 16.1536 28.389 16.2762H21.3253C21.1402 16.1117 20.9536 15.9048 20.9536 15.9048H28.8031ZM27.9501 16.7062C27.9501 16.7062 27.6991 16.9111 27.4723 16.9953H22.2615C21.827 16.7505 21.827 16.7062 21.827 16.7062H27.9501ZM24.8774 17.8189C23.6114 17.8189 22.9663 17.446 22.9663 17.446H26.9526C26.9526 17.446 26.1453 17.8189 24.8774 17.8189ZM24.0861 18.6788C23.6322 18.3297 22.8633 18.2898 22.8633 18.2898H15.0737L13.5 20.654H20.7235C20.7235 20.654 21.285 20.6915 21.8658 21.0653C22.3982 21.4165 22.5566 21.6778 22.6248 21.7902L22.6347 21.8065C22.677 21.8582 22.6813 21.8721 22.6869 21.8901C22.6922 21.9071 22.6986 21.9278 22.7392 21.9873C22.817 22.1139 22.9662 22.172 22.9662 22.172H26.6629C26.6629 22.172 26.641 22.1967 26.7465 22.1523C26.8427 22.1159 26.904 22.0389 26.9813 21.9417L26.9944 21.9253C27.08 21.8247 27.1378 21.6396 27.1378 21.6396C27.1378 21.6396 27.4304 21.2479 27.8265 21.0253C28.5742 20.5909 29.0717 20.5712 29.0717 20.5712H36.1761L34.6183 18.2898H26.7068C26.7068 18.2898 25.9991 18.4316 25.564 18.763C25.1268 19.0729 24.8566 19.6654 24.8566 19.6654C24.8566 19.6654 24.5237 19.0508 24.0861 18.6788ZM17.2746 33.1879V21.5155L19.1469 21.5154V32.777C19.1469 32.777 19.1469 33.6223 19.789 34.6064C20.4549 35.5934 21.3253 36.1091 21.3253 36.1091L20.3265 37.6503C20.3265 37.6503 19.0618 37.012 18.1899 35.6141C17.3163 34.2192 17.2746 33.1879 17.2746 33.1879ZM30.6495 32.7357V21.4755H32.522V32.7357C32.522 32.7357 32.3537 34.4025 31.646 35.5107C30.9412 36.6219 29.49 37.6681 29.49 37.6681L28.5294 36.1491C28.5294 36.1491 29.4242 35.49 29.9647 34.6684C30.5052 33.8675 30.6495 32.7357 30.6495 32.7357ZM14.3093 33.2307V21.5155H16.2399V33.1879C16.2399 33.1879 16.2981 34.6685 17.3821 36.291C18.4392 37.8972 19.7695 38.5961 19.7695 38.5961L18.7916 40.1358C18.7916 40.1358 16.7191 38.8191 15.5724 36.9308C14.4317 35.0408 14.3093 33.2307 14.3093 33.2307ZM22.8633 35.1206V22.7483H24.3563V35.3305C24.3563 35.3305 24.3384 35.5107 24.2951 35.697C24.2325 35.9023 24.1488 36.0457 24.1488 36.0457L21.6165 40.217H28.1372L25.5639 36.025C25.5639 36.025 25.4774 35.8018 25.4386 35.657C25.3758 35.5107 25.3758 35.3305 25.3758 35.3305V22.7705H26.9337V34.8738L26.9754 35.2004L27.0989 35.5107L31.2756 42.5H18.4825L22.6557 35.657C22.6557 35.657 22.7796 35.5329 22.802 35.3452C22.817 35.1635 22.8633 35.1206 22.8633 35.1206ZM33.5361 32.9854V21.4755H35.4274V32.9854C35.4274 32.9854 35.2831 35.1827 34.0985 37.0741C32.8921 38.9639 30.9839 40.1564 30.9839 40.1564L30.0482 38.5961C30.0482 38.5961 31.3154 37.878 32.4163 36.1698C33.5182 34.4646 33.5361 32.9854 33.5361 32.9854ZM21.7628 8.56684C19.1887 10.2962 19.8307 13.7672 19.8307 13.7672L29.9647 13.7672C29.9647 13.7672 30.7949 10.5794 27.9909 8.54665C27.9909 8.54665 26.8302 7.5 24.8132 7.5C22.9259 7.5 21.7628 8.56684 21.7628 8.56684Z" fill="#1E638C"/>
</g>
<defs>
<clipPath id="clip0_3_85">
<rect width="50" height="50" fill="white"/>
</clipPath>
</defs>
</svg>
