<svg width="50" height="50" viewBox="0 0 50 50" fill="none" xmlns="http://www.w3.org/2000/svg">
<g clip-path="url(#clip0_301_10)">
<path fill-rule="evenodd" clip-rule="evenodd" d="M50 0H0V50H50V0ZM17.2681 26.9956V24.7645H18.3714C19.8462 24.7645 21.4961 23.9826 21.4961 22.3087C21.4961 20.8464 20.2925 19.8776 18.3481 19.8776H9.8V20.052C10.2007 20.0768 10.5051 20.1313 10.7133 20.214C10.9215 20.2975 11.0675 20.4322 11.1513 20.619C11.2351 20.8059 11.2765 21.0745 11.2765 21.4233V28.2834C11.2765 28.9571 11.1305 29.4407 10.8386 29.7358C10.5748 30.0028 10.228 30.1475 9.8 30.1731V30.3227C9.93604 30.3384 10.0737 30.3467 10.2131 30.3467C12.0148 30.3467 12.9273 29.0158 12.9273 27.6164V21.4242C12.9273 20.3206 13.454 20.09 14.315 20.09C15.0998 20.09 15.6165 20.3215 15.6165 21.4614V26.9956C15.6165 27.3527 15.5742 27.623 15.4913 27.8057C15.4083 27.9892 15.264 28.1223 15.0599 28.2049C14.8559 28.2884 14.549 28.3421 14.1408 28.3669V28.5413H18.9819V28.3669C18.5066 28.3421 18.1515 28.2884 17.9184 28.2049C17.6854 28.1223 17.5186 27.9867 17.4182 27.7999C17.3179 27.6122 17.2681 27.3444 17.2681 26.9956ZM17.2681 24.4298H17.8645C18.879 24.4298 19.7326 23.8379 19.7326 22.3211C19.7326 20.467 18.5041 20.2124 17.8952 20.2124H17.2681V24.4298ZM31.9911 28.2049C32.1993 28.2884 32.5079 28.3421 32.9169 28.3669V28.5413H28.3015V28.3669C28.7096 28.3421 29.019 28.2884 29.2272 28.2049C29.4354 28.1223 29.5797 27.9892 29.6585 27.8057C29.7374 27.623 29.7772 27.3527 29.7772 26.9956V21.4357H29.7398L26.5752 28.7034H26.5379L23.1477 21.4614H23.1104V26.9956C23.1104 27.3527 23.1518 27.623 23.2356 27.8057C23.3186 27.9883 23.4629 28.1214 23.667 28.2049C23.871 28.2884 24.178 28.3421 24.5861 28.3669V28.5413H21.0648V28.3669C21.4729 28.3421 21.7798 28.2884 21.9839 28.2049C22.188 28.1223 22.3323 27.9892 22.4152 27.8057C22.4982 27.623 22.5405 27.3527 22.5405 26.9956V21.4233C22.5405 21.0662 22.499 20.7959 22.4152 20.6133C22.3315 20.4306 22.188 20.2975 21.9839 20.214C21.779 20.1313 21.4729 20.0768 21.0648 20.052V19.8776H24.2236L27.1086 26.1541L29.9066 19.8776H32.9169V20.052C32.5079 20.0768 32.1993 20.1313 31.9911 20.214C31.7829 20.2975 31.6369 20.4322 31.5532 20.619C31.4694 20.8059 31.4279 21.0737 31.4279 21.4233V26.9956C31.4279 27.3527 31.4694 27.623 31.5532 27.8057C31.6369 27.9892 31.7829 28.1214 31.9911 28.2049ZM34.2491 24.1396C34.2491 26.5376 35.7123 28.0156 37.5572 28.0032C38.9408 27.9908 39.6641 27.246 40.0258 26.836L40.2 27.022C39.6641 27.7552 38.5426 28.7116 36.9342 28.724C34.0168 28.7364 32.3213 26.7616 32.3213 24.2644C32.3213 21.6432 34.3536 19.68 37.0462 19.68C38.4423 19.68 39.4028 20.0445 39.9885 20.3677V22.8972L39.7388 22.9013C39.3979 21.5267 38.7293 20.1272 37.1706 20.1272C35.612 20.1272 34.2491 21.6052 34.2491 24.1396Z" fill="#1E638C"/>
</g>
<defs>
<clipPath id="clip0_301_10">
<rect width="50" height="50" fill="white"/>
</clipPath>
</defs>
</svg>
