<svg width="50" height="50" viewBox="0 0 50 50" fill="none" xmlns="http://www.w3.org/2000/svg">
<path fill-rule="evenodd" clip-rule="evenodd" d="M0 0H50V50H0V0ZM15.5619 24.7653V24.7644C15.5619 24.0074 15.5922 23.3288 16.1481 22.1368C16.166 22.0982 16.1863 22.0576 16.2076 22.0151C16.3771 21.6764 16.606 21.2191 16.1405 20.6952C15.715 20.2667 15.2316 20.3369 14.9061 20.5265C15.0933 20.1976 15.1629 19.7073 14.7378 19.277C14.2178 18.8068 13.7624 19.0406 13.4277 19.2125C13.387 19.2334 13.3481 19.2534 13.311 19.2711C12.1297 19.8338 11.4612 19.8649 10.7093 19.8649C9.95432 19.8649 9.28501 19.8338 8.10623 19.2711C8.06887 19.2533 8.02961 19.2333 7.98855 19.2123C7.65232 19.0404 7.19565 18.807 6.67735 19.277C6.25222 19.7073 6.32392 20.1976 6.51118 20.5265C6.18474 20.3361 5.70058 20.2667 5.27461 20.6952C4.81192 21.2164 5.03744 21.6717 5.20494 22.0099C5.22692 22.0543 5.24789 22.0966 5.26618 22.1368C5.82542 23.3288 5.8562 24.0074 5.8562 24.7653C5.8562 25.5253 5.82542 26.2056 5.26618 27.3967C5.24829 27.4358 5.22784 27.4769 5.2064 27.5201C5.03875 27.8573 4.81058 28.3164 5.27461 28.8388C5.70058 29.2661 6.18474 29.1953 6.51118 29.0079C6.32392 29.3376 6.25222 29.8267 6.67735 30.2527C7.19554 30.726 7.65212 30.4925 7.98833 30.3206C8.02947 30.2995 8.0688 30.2794 8.10623 30.2616C9.28585 29.6993 9.95432 29.6695 10.7093 29.6695C11.4612 29.6695 12.1297 29.6993 13.3106 30.2616C13.3478 30.2794 13.387 30.2995 13.4279 30.3205C13.7629 30.4925 14.218 30.7261 14.7378 30.2527C15.1629 29.8267 15.0916 29.3376 14.9052 29.0079C15.2316 29.1953 15.715 29.2686 16.1405 28.8388C16.6074 28.3137 16.3757 27.8525 16.2061 27.5148C16.1854 27.4736 16.1656 27.4342 16.1481 27.3967C15.5922 26.2039 15.5619 25.5253 15.5619 24.7653ZM11.5038 26.0305L14.2684 28.3723L14.2798 28.3633L11.9564 25.5717C11.9564 25.5717 11.5941 25.1947 11.5941 24.7653C11.5941 24.3401 11.9564 23.9627 11.9564 23.9627L14.2798 21.1706L14.2684 21.1583L11.5038 23.5026C11.5038 23.5026 11.1293 23.8728 10.7093 23.8728C10.285 23.8728 9.91046 23.5026 9.91046 23.5026L7.14675 21.1583L7.13789 21.1681L9.45666 23.9627C9.45666 23.9627 9.82147 24.3401 9.82147 24.7653C9.82147 25.1947 9.45666 25.5717 9.45666 25.5717L7.13789 28.3642L7.14675 28.3723L9.91046 26.0305C9.91046 26.0305 10.285 25.6612 10.7093 25.6612C11.1293 25.6612 11.5038 26.0305 11.5038 26.0305ZM28.6279 24.7596C28.6388 21.061 25.8749 19.5806 23.7745 19.5905C23.304 19.5931 19.0358 19.5905 19.0358 19.5905L19.0462 19.7015C19.3865 19.7592 19.667 19.9946 19.7005 20.36C19.8068 21.528 19.8466 28.6195 19.6712 29.3946C19.6155 29.5985 19.2806 29.7896 18.9826 29.8443L18.9759 29.9592L24.2747 29.9579C26.3613 29.9579 28.6208 27.9765 28.6279 24.7596ZM24.7347 29.2878C25.6753 28.9414 26.8393 27.2914 26.6464 24.6929C26.4605 22.1791 25.5283 20.2042 23.0462 20.0187C23.0462 20.0187 22.5761 19.9838 22.1822 19.9821L22.1462 19.9818C21.7547 19.9787 21.6685 19.978 21.6381 20.4284C21.5841 21.2964 21.5686 28.057 21.6226 29.0326L21.6226 29.0332C21.6289 29.1674 21.6439 29.4876 22.1847 29.5439C23.1751 29.6424 23.9943 29.5633 24.7347 29.2878ZM34.7421 24.4213C37.213 25.0509 37.362 26.8847 37.3277 27.4003C37.2147 29.6962 35.321 29.9592 34.5584 29.9592H28.7292L28.7359 29.8434C29.1595 29.7836 29.4772 29.5452 29.4772 28.78L29.5116 20.873C29.5212 20.0157 29.3018 19.7536 28.8401 19.6976L28.8297 19.5905H33.2373C33.2644 19.5905 33.2933 19.5903 33.3238 19.59C33.3455 19.5898 33.368 19.5896 33.3913 19.5894C34.3177 19.5797 36.4949 19.5569 36.6906 21.7281C36.8431 23.4321 35.1707 24.2187 34.8041 24.3912C34.7742 24.4053 34.753 24.4152 34.7421 24.4213ZM32.2005 24.5052C33.8455 24.5977 35.434 25.1886 35.3922 27.4166C35.357 28.9883 34.4767 29.3782 33.959 29.4918C33.3935 29.6153 32.5856 29.5886 31.959 29.5572C31.3864 29.5296 31.3812 29.2994 31.3758 29.0606C31.3754 29.0463 31.3751 29.0319 31.3746 29.0176C31.3746 29.0176 31.3801 27.9528 31.3998 26.5701C31.43 24.732 31.4749 22.333 31.4975 21.1259L31.4975 21.125C31.5061 20.6617 31.5115 20.3742 31.5115 20.3617C31.5098 20.0062 31.5894 19.9821 31.9079 19.9679C32.0971 19.9584 32.1946 19.9584 32.6425 19.9645C33.1913 19.9731 34.6919 20.0187 34.7781 22.0526C34.8643 24.1398 32.7392 24.3929 32.2047 24.4148C32.1792 24.4191 32.1662 24.5026 32.2005 24.5052ZM44.3468 19.621L44.2468 19.6219L44.2454 19.6238C44.2193 19.6584 44.1774 19.7141 44.0898 19.7441C43.8701 19.8302 43.6047 19.7562 43.6047 19.7562C42.5206 19.4683 41.1598 19.482 41.1598 19.482C39.6387 19.5139 37.9455 20.0355 37.7011 22.121C37.5269 23.5967 38.6307 24.3873 38.6307 24.3873C39.2512 24.9466 40.3117 25.2304 41.1546 25.4559C41.5756 25.5685 41.9424 25.6667 42.1727 25.7774C43.0568 26.2017 43.0986 27.1326 43.0589 27.5393C42.9132 29.0516 41.8266 29.6205 40.5156 29.6024C39.2087 29.5877 38.5975 29.032 38.329 28.7879C38.3231 28.7825 38.3174 28.7773 38.3118 28.7723C38.019 28.5102 37.9566 28.2094 37.913 27.9986C37.9036 27.9532 37.895 27.912 37.8852 27.8762L37.7743 27.8706L37.7705 29.8628L37.8852 29.8568C37.9895 29.6601 38.0585 29.5701 38.3181 29.6459C39.7207 30.0457 40.7249 30.0801 40.7249 30.0801C43.1418 30.1567 44.8487 29.1901 44.9885 27.1575C45.1758 24.457 43.02 23.9716 42.1653 23.7791C42.0989 23.7642 42.0405 23.751 41.9915 23.7387C40.5487 23.3768 39.5746 23.1117 39.5843 21.8284C39.5951 20.8626 40.3151 19.8422 41.9806 19.9322C43.3908 20.0062 44.094 20.7154 44.2711 21.4677L44.3812 21.4686L44.3468 19.621Z" fill="#84b9ca"/>
</svg>
