<svg width="50" height="50" viewBox="0 0 50 50" fill="none" xmlns="http://www.w3.org/2000/svg">
<path fill-rule="evenodd" clip-rule="evenodd" d="M50 0H0V50H50V0ZM15.8586 29.8509L16.9703 27.201H17.0845L18.3562 30.2393L18.5313 30.6353C18.5708 30.7253 18.6243 30.797 18.6912 30.8485C18.7579 30.9004 18.8541 30.9344 18.9882 30.9475V31.0769H17.4881V30.9475C17.6717 30.9475 17.7962 30.9366 17.8612 30.9094C17.9257 30.8822 17.9602 30.8226 17.9602 30.7419C17.9602 30.7006 17.9174 30.5816 17.8308 30.3764L17.5338 29.6682H16.087L15.988 29.9119C15.8414 30.2639 15.7672 30.4898 15.7672 30.5972C15.7672 30.7121 15.8038 30.7969 15.8814 30.8561C15.9598 30.9155 16.0621 30.9475 16.186 30.9475V31.0769H15.0362V30.9475C15.2065 30.9211 15.3338 30.858 15.4169 30.7647C15.5001 30.6717 15.5958 30.4782 15.7139 30.1784C15.7171 30.1706 15.7236 30.1565 15.7329 30.1362C15.7572 30.0835 15.8008 29.9885 15.8586 29.8509ZM16.8104 27.9092L17.4805 29.5235H16.1479L16.8104 27.9092ZM7.45193 19.0533V19.2208H7.56615C7.81854 19.2208 7.97887 19.2454 8.05349 19.2894C8.12838 19.3333 8.1826 19.4108 8.20579 19.5254C8.22897 19.6403 8.23625 19.899 8.23625 20.2945V21.985C8.23625 22.539 8.22212 22.9401 8.18294 23.1805C8.1443 23.4214 8.02269 23.6279 7.83267 23.8049C7.64264 23.9818 7.40982 24.0714 7.13211 24.0714C6.99566 24.0714 6.8822 24.0466 6.78945 24.0029C6.69724 23.9591 6.65239 23.8979 6.65239 23.8201C6.65239 23.7908 6.66354 23.749 6.69046 23.6907C6.72005 23.6248 6.73615 23.5613 6.73615 23.5003C6.73615 23.3979 6.7023 23.312 6.62955 23.2414C6.55705 23.1705 6.46362 23.1348 6.35542 23.1348C6.24961 23.1348 6.16166 23.1777 6.0889 23.2566C6.01641 23.3355 5.9823 23.4306 5.9823 23.546C5.9823 23.7373 6.0846 23.9021 6.28688 24.0409C6.4897 24.1795 6.77183 24.2465 7.14734 24.2465C7.48155 24.2465 7.77826 24.1915 8.03065 24.079C8.28304 23.9663 8.48871 23.808 8.63982 23.5993C8.79094 23.3903 8.88064 23.1722 8.91395 22.952C8.94673 22.7322 8.95964 22.4134 8.95964 21.9926V20.2945C8.95964 19.8814 8.9732 19.6203 8.99772 19.5102C9.02197 19.4001 9.07432 19.3217 9.15001 19.2817C9.22543 19.241 9.38561 19.2208 9.62973 19.2208H9.75157V19.0533H7.45193ZM10.9928 19.0305C11.4933 19.011 11.8853 19 12.1654 19C12.6806 19 13.0748 19.0411 13.3533 19.1218C13.6318 19.2026 13.8606 19.3428 14.0386 19.5483C14.2167 19.7537 14.3052 20.0121 14.3052 20.325C14.3052 20.5965 14.2437 20.8402 14.1224 21.0484C14.0009 21.2562 13.8314 21.4128 13.6046 21.5205C13.3781 21.6279 12.98 21.6804 12.4091 21.6804H11.8608V22.7312C11.8608 23.124 11.865 23.3788 11.8837 23.5003C11.9021 23.6218 11.9547 23.7155 12.036 23.7744C12.1173 23.8336 12.269 23.8582 12.4929 23.8582H12.6604V24.0257H10.3684V23.8582H10.4978C10.7118 23.8582 10.8647 23.8359 10.9471 23.782C11.0294 23.7282 11.0773 23.6445 11.0994 23.5307C11.1215 23.4169 11.1374 23.1472 11.1374 22.7312V20.2945C11.1374 19.8985 11.1215 19.6405 11.0994 19.5254C11.0773 19.4103 11.0312 19.3336 10.9547 19.2894C10.8785 19.2454 10.7132 19.2208 10.4597 19.2208H10.3684V19.0533L10.9928 19.0305ZM12.2416 19.1751C12.6952 19.1751 13.0219 19.2718 13.2239 19.4645C13.4259 19.6569 13.5285 19.9586 13.5285 20.3706C13.5285 20.6406 13.4709 20.8721 13.3533 21.056C13.2355 21.2399 13.0878 21.3558 12.9117 21.4139C12.7352 21.4714 12.5052 21.5052 12.2187 21.5052H11.8608V19.1904C11.9491 19.1805 12.0753 19.1751 12.2416 19.1751ZM14.9753 19.0533V19.2208H15.1123C15.3658 19.2208 15.5245 19.2454 15.5997 19.2894C15.6748 19.3336 15.7288 19.4103 15.752 19.5254C15.7754 19.6405 15.7824 19.8982 15.7824 20.2945V22.4571C15.7824 22.868 15.7739 23.1504 15.7443 23.3023C15.715 23.454 15.6274 23.5872 15.4931 23.6907C15.359 23.7946 15.1895 23.8462 14.9753 23.8582V24.0257H16.7647V23.8582C16.5347 23.8435 16.3588 23.7842 16.2317 23.6754C16.104 23.5667 16.0275 23.4391 16.0032 23.2947C15.9787 23.1502 15.9652 22.8786 15.9652 22.4799V19.5711L17.945 24.0257H18.1201L20.0771 19.5711V22.7388C20.0771 23.1548 20.0698 23.4169 20.0466 23.5307C20.0235 23.6445 19.9691 23.7279 19.8867 23.782C19.8041 23.8359 19.657 23.8582 19.4451 23.8582H19.2699V24.0257H21.661V23.8582H21.4401C21.2147 23.8582 21.0627 23.8333 20.9832 23.7744C20.9033 23.7158 20.8504 23.6289 20.831 23.5079C20.8112 23.3869 20.8005 23.1227 20.8005 22.7312V20.2945C20.8005 19.8811 20.8124 19.6205 20.8386 19.5102C20.8639 19.4001 20.9149 19.322 20.9909 19.2817C21.0668 19.2415 21.2333 19.2208 21.4782 19.2208H21.661V19.0533H20.1228L18.3181 23.1729L16.4906 19.0533H14.9753ZM22.5366 20.66C22.9308 20.3026 23.4168 20.127 24.0063 20.127C24.6011 20.127 25.0998 20.3066 25.4988 20.66C25.8975 21.0137 26.1003 21.4957 26.1003 22.1068C26.1003 22.699 25.9111 23.1719 25.5292 23.5384C25.147 23.9053 24.6444 24.0942 24.0215 24.0942C23.4149 24.0942 22.9176 23.9053 22.529 23.5384C22.1405 23.1719 21.9427 22.6895 21.9427 22.084C21.9427 21.4936 22.1425 21.0171 22.5366 20.66ZM24.0139 20.264C24.4795 20.264 24.835 20.4269 25.08 20.7438C25.3249 21.0607 25.4455 21.5122 25.4455 22.1068C25.4455 22.7182 25.3207 23.1764 25.0723 23.4851C24.8234 23.7937 24.4879 23.9496 24.0596 23.9496C23.5711 23.9496 23.2072 23.7937 22.9631 23.4851C22.7189 23.1764 22.5976 22.7219 22.5976 22.1068C22.5976 21.501 22.7189 21.038 22.9631 20.7285C23.2072 20.4191 23.5552 20.264 24.0139 20.264ZM28.0268 20.1498C27.8128 20.1498 27.5228 20.1567 27.1588 20.1727L26.6181 20.1955V20.325H26.679C26.876 20.325 27.008 20.3444 27.0674 20.3783C27.1263 20.4121 27.1646 20.4728 27.1816 20.561C27.1989 20.6492 27.2045 20.843 27.2045 21.1473V23.0282C27.2045 23.3477 27.1987 23.5497 27.1816 23.6374C27.1648 23.7248 27.1229 23.7867 27.0598 23.8277C26.9969 23.869 26.881 23.8886 26.7171 23.8886H26.5953V24.0181H28.4304V23.8886H28.2477C28.0742 23.8886 27.9508 23.8651 27.8898 23.8201C27.8282 23.7753 27.7894 23.7073 27.7756 23.6145C27.7614 23.5226 27.7603 23.3269 27.7603 23.0282V22.1906H27.9126C28.0152 22.1906 28.0847 22.2095 28.1334 22.2439C28.1817 22.2785 28.271 22.3673 28.4 22.5256C28.5287 22.6831 28.6532 22.8487 28.7731 23.0206C29.1465 23.5584 29.4295 23.8899 29.6107 24.0181H30.6311V23.8886C30.4075 23.8812 30.2165 23.8185 30.0524 23.6983C29.8887 23.5775 29.663 23.3238 29.3746 22.9368C29.0207 22.4587 28.7573 22.1833 28.5979 22.1068C28.9519 22.0636 29.2228 21.9563 29.4051 21.7794C29.5879 21.6024 29.6792 21.3826 29.6792 21.1321C29.6792 20.9176 29.6067 20.7382 29.466 20.5839C29.3253 20.429 29.1454 20.3168 28.9178 20.2488C28.6896 20.1811 28.3906 20.1498 28.0268 20.1498ZM28.8645 20.5306C28.7317 20.3688 28.4412 20.2869 27.9964 20.2869H27.9934C27.9254 20.2869 27.8481 20.2869 27.7603 20.2945V22.0459C27.8994 22.0424 28.0383 22.0381 28.1868 22.0306C28.3352 22.0229 28.4658 22.0036 28.5751 21.9697C28.6846 21.9362 28.7739 21.8901 28.8416 21.8251C28.9093 21.7603 28.9623 21.6714 29.0015 21.5662C29.0404 21.4606 29.0624 21.3324 29.0624 21.1778C29.0624 20.9089 28.9969 20.6923 28.8645 20.5306ZM31.4382 20.7438C31.785 20.332 32.2516 20.127 32.8469 20.127C33.3592 20.127 33.7828 20.3155 34.1186 20.6905C34.1815 20.5569 34.2234 20.4107 34.2404 20.2564H34.3699V21.5357H34.2404C34.1861 21.1447 34.0348 20.8351 33.7912 20.6067C33.5478 20.3786 33.2554 20.264 32.9079 20.264C32.5486 20.264 32.238 20.4011 31.9713 20.6676C31.7045 20.9344 31.5677 21.4041 31.5677 22.084C31.5677 22.762 31.6918 23.2485 31.9484 23.5307C32.2048 23.8135 32.5278 23.9496 32.9079 23.9496C33.1024 23.9496 33.2815 23.9082 33.4409 23.8277C33.6 23.7478 33.7029 23.6532 33.7607 23.5384C33.8191 23.4238 33.8521 23.2794 33.8521 23.1043C33.8521 22.8988 33.8338 22.7619 33.8064 22.6931C33.7789 22.6246 33.7413 22.5792 33.6846 22.5561C33.6278 22.5323 33.524 22.518 33.3724 22.518H33.281V22.3885H34.9334V22.518C34.7511 22.518 34.625 22.5345 34.5603 22.5713C34.4952 22.6081 34.4513 22.6761 34.4308 22.7617C34.41 22.8475 34.4003 23.0556 34.4003 23.3861V23.7896C34.3565 23.782 34.3154 23.782 34.28 23.782H34.2785C34.1341 23.782 33.9419 23.8235 33.7074 23.9115C33.3879 24.0311 33.0962 24.0942 32.8241 24.0942C32.2775 24.0942 31.8233 23.9136 31.4611 23.5536C31.0986 23.1935 30.9128 22.7357 30.9128 22.1829C30.9128 21.6361 31.0915 21.1553 31.4382 20.7438ZM37.1416 20.1498L36.0223 22.7921C35.9796 22.8934 35.947 22.9717 35.9241 23.027C35.9107 23.0592 35.9006 23.0835 35.8936 23.1001C35.89 23.1086 35.8872 23.1151 35.8852 23.1196C35.7679 23.4194 35.664 23.6205 35.5806 23.7135C35.4972 23.8068 35.3775 23.8623 35.2075 23.8886V24.0181H36.3573V23.8886C36.2329 23.8886 36.1306 23.8643 36.0527 23.8049C35.9746 23.7454 35.9385 23.6532 35.9385 23.5384C35.9385 23.431 36.0125 23.2051 36.1593 22.853L36.2583 22.6094H37.7051L37.9945 23.3175C38.0808 23.5227 38.1315 23.6493 38.1315 23.6907C38.1315 23.7714 38.0976 23.8234 38.0326 23.8506C37.9678 23.8777 37.8433 23.8886 37.6594 23.8886V24.0181H39.1595V23.8886C39.026 23.8753 38.9292 23.8492 38.8626 23.7973C38.7959 23.7458 38.7418 23.6741 38.7026 23.584L38.5275 23.1805L37.2559 20.1498H37.1416ZM37.6518 22.4723L36.9817 20.8504L36.3116 22.4723H37.6518ZM39.6545 20.325V20.1955H40.7967L43.0583 23.1881V20.9037C43.0583 20.7347 43.0396 20.6137 43.005 20.5458C42.9703 20.4784 42.8989 20.4253 42.7917 20.3859C42.6849 20.3464 42.5613 20.325 42.411 20.325V20.1955H43.7893V20.325C43.6294 20.3383 43.5007 20.3676 43.4085 20.4163C43.3168 20.4651 43.2584 20.5306 43.2334 20.5991C43.2083 20.6678 43.1953 20.7781 43.1953 20.9417V24.1095H43.0811L40.3627 20.5229V23.1805C40.3627 23.4003 40.3715 23.5449 40.3931 23.6145C40.415 23.6843 40.4825 23.7468 40.5835 23.8049C40.6845 23.8632 40.8307 23.8886 41.0327 23.8886V24.0181H39.6164V23.8886C39.7974 23.8753 39.9325 23.8435 40.0276 23.7896C40.123 23.7358 40.1773 23.6763 40.1951 23.6145C40.2127 23.5524 40.2256 23.4115 40.2256 23.1805V21.1473C40.2256 20.8539 40.2073 20.6604 40.1799 20.561C40.1524 20.4616 40.1101 20.3989 40.0504 20.3706C39.9908 20.3424 39.8608 20.325 39.6545 20.325ZM7.42147 26.0512C6.97399 26.0512 6.56235 26.1534 6.18789 26.3634C5.81317 26.5734 5.52142 26.8969 5.3122 27.3305C5.10299 27.7638 5 28.2252 5 28.7164C5 29.4637 5.2241 30.0664 5.67771 30.521C6.13078 30.9754 6.71376 31.1987 7.42909 31.1987C8.10497 31.1987 8.66176 30.9592 9.09671 30.4677C9.21237 30.6199 9.2964 30.7943 9.34038 30.9931H9.5079V29.2418H9.34038C9.31106 29.5301 9.21306 29.8317 9.05102 30.1403C8.88951 30.4492 8.67359 30.6659 8.39615 30.7952C8.11845 30.9244 7.84656 30.9931 7.58138 30.9931C7.08513 30.9931 6.66598 30.7887 6.33257 30.3916C5.99916 29.9939 5.83762 29.4243 5.83762 28.6783C5.83762 27.8907 5.98907 27.2889 6.2945 26.866C6.59992 26.4428 7.00997 26.2263 7.52808 26.2263C7.95184 26.2263 8.33341 26.359 8.67028 26.6223C9.00743 26.8856 9.23057 27.3484 9.34038 28.0158H9.5079L9.46221 26.1426H9.29469C9.2723 26.3646 9.20411 26.5751 9.09671 26.7822C8.94853 26.5975 8.72724 26.4313 8.42661 26.2796C8.12678 26.1277 7.79113 26.0512 7.42147 26.0512ZM10.3988 27.3838V27.2543H12.135V27.3838H12.0588C11.8704 27.3838 11.7522 27.3983 11.6933 27.4295C11.6342 27.4601 11.5915 27.5201 11.5715 27.6046C11.5515 27.6891 11.541 27.889 11.541 28.2062V28.9676H13.5361V28.2062C13.5361 27.9021 13.5303 27.7081 13.5132 27.6198C13.4964 27.5314 13.456 27.4709 13.399 27.4371C13.342 27.4035 13.218 27.3838 13.0259 27.3838H12.9269V27.2543H14.6554V27.3838H14.6021C14.4145 27.3838 14.2874 27.3983 14.229 27.4295C14.1712 27.4601 14.1348 27.5201 14.1148 27.6046C14.0953 27.6891 14.0843 27.889 14.0843 28.2062V30.0794C14.0843 30.3803 14.0928 30.5803 14.1072 30.6733C14.1213 30.7663 14.1596 30.8339 14.2214 30.8789C14.2835 30.924 14.4011 30.9475 14.5717 30.9475H14.6554V31.0769H12.9269V30.9475H13.0563C13.2168 30.9475 13.3288 30.9279 13.3914 30.8865C13.4535 30.845 13.4964 30.7762 13.5132 30.6886C13.5303 30.6009 13.5361 30.3997 13.5361 30.0794V29.158H11.541V30.0794C11.541 30.3811 11.5487 30.5801 11.5639 30.6733C11.5788 30.7663 11.6163 30.8336 11.6781 30.8789C11.7399 30.924 11.8627 30.9475 12.036 30.9475H12.135V31.0769H10.3988V30.9475H10.4978C10.6625 30.9475 10.777 30.9279 10.8405 30.8865C10.9036 30.8455 10.945 30.7836 10.9623 30.6962C10.9804 30.6085 10.9928 30.3992 10.9928 30.0794V28.2062C10.9928 27.9021 10.9804 27.7081 10.9623 27.6198C10.945 27.5314 10.9057 27.4709 10.8481 27.4371C10.7903 27.4035 10.6701 27.3838 10.475 27.3838H10.3988ZM20.5111 27.1858C20.2201 27.1858 19.9854 27.2708 19.7954 27.4523C19.6056 27.6338 19.506 27.865 19.506 28.1376C19.506 28.3165 19.5556 28.4824 19.6431 28.6402C19.7305 28.7982 19.8453 28.9302 20.001 29.0286C20.1566 29.1274 20.395 29.2398 20.7015 29.3712C21.0453 29.5181 21.2804 29.6548 21.4097 29.7824C21.5392 29.9119 21.6 30.0705 21.6 30.2621C21.6 30.4519 21.5266 30.6267 21.3792 30.7799C21.2316 30.9332 21.0237 31.0084 20.7548 31.0084C20.157 31.0084 19.7801 30.6064 19.6202 29.8053H19.4755V31.0388H19.6202C19.6503 30.8787 19.6947 30.7539 19.7573 30.6657C20.0382 30.9871 20.3881 31.1454 20.8081 31.1454C21.1735 31.1454 21.4653 31.0455 21.6838 30.8409C21.9023 30.6356 22.0112 30.3686 22.0112 30.0413C22.0112 29.8345 21.9642 29.6511 21.8742 29.4931C21.7833 29.3353 21.6663 29.2168 21.5163 29.1275C21.3665 29.0383 21.1226 28.917 20.7929 28.7697C20.4483 28.6143 20.2169 28.474 20.0847 28.3508C19.9501 28.2298 19.8791 28.0843 19.8791 27.9092C19.8791 27.7642 19.9322 27.6279 20.039 27.5056C20.1462 27.3838 20.3124 27.3229 20.5416 27.3229C20.7823 27.3229 20.9989 27.4086 21.1812 27.5741C21.3643 27.7402 21.49 27.963 21.562 28.2519H21.6838V27.2543H21.562C21.551 27.3745 21.5039 27.4862 21.4173 27.5894C21.2664 27.4241 21.1188 27.3144 20.9756 27.2619C20.832 27.2092 20.674 27.1858 20.5111 27.1858ZM22.7346 27.3838V27.2543H25.4607L25.5521 28.2062H25.4226C25.3629 27.9399 25.2881 27.7467 25.2018 27.6351C25.1149 27.5237 25.009 27.4588 24.8896 27.4295C24.7699 27.4004 24.5834 27.3838 24.3185 27.3838H23.7931V28.9829H24.189C24.3737 28.9829 24.5038 28.9692 24.5774 28.9372C24.6507 28.9052 24.6986 28.8573 24.7221 28.7925C24.7455 28.728 24.7601 28.5991 24.7601 28.4118H24.8896V29.7139H24.7601C24.7601 29.5017 24.7423 29.3602 24.7068 29.2875C24.6714 29.2152 24.6228 29.172 24.5545 29.1504C24.486 29.1285 24.3668 29.1123 24.2043 29.1123H23.7931V30.0185C23.7931 30.471 23.8187 30.7383 23.8768 30.818C23.9352 30.8977 24.0936 30.9398 24.3489 30.9398H24.6307C24.8314 30.9398 24.9959 30.918 25.1256 30.8713C25.2544 30.8247 25.3741 30.7201 25.4911 30.5591C25.6081 30.3987 25.7052 30.1753 25.7729 29.889H25.9023L25.8186 31.0769H22.6661V30.9475H22.7499C22.938 30.9475 23.0526 30.922 23.1077 30.8713C23.1629 30.8204 23.1992 30.7588 23.2144 30.6809C23.2293 30.6029 23.2372 30.3989 23.2372 30.0794V28.2062C23.2372 27.9151 23.2309 27.7194 23.2144 27.6275C23.1984 27.5355 23.158 27.4733 23.1001 27.4371C23.042 27.4003 22.9204 27.3838 22.7346 27.3838ZM29.6716 26.0131C29.3622 26.0131 29.1072 26.1175 28.9025 26.3253C28.6981 26.5335 28.5979 26.7681 28.5979 27.0335C28.5979 27.3704 28.7476 27.7447 29.0472 28.1605C28.5499 28.4926 28.2104 28.7725 28.0345 28.9905C27.8591 29.209 27.7756 29.4762 27.7756 29.7976C27.7756 30.0788 27.8478 30.322 27.9888 30.5363C28.1295 30.7508 28.3053 30.9202 28.5294 31.0388C28.7535 31.1574 28.9916 31.2216 29.2376 31.2216C29.7392 31.2216 30.2185 30.9682 30.6691 30.4677C31.0481 30.9682 31.4873 31.2216 31.9865 31.2216C32.2168 31.2216 32.4203 31.1526 32.5957 31.0236C32.7708 30.8949 32.8842 30.7229 32.9383 30.5134H32.7556C32.6252 30.7434 32.4401 30.8637 32.1997 30.8637C32.023 30.8637 31.8609 30.8091 31.7047 30.7038C31.5488 30.5988 31.3312 30.3496 31.0575 29.9575C31.1724 29.8048 31.3007 29.5677 31.4382 29.2418C31.6019 28.8471 31.7634 28.5772 31.918 28.4346C32.0728 28.2918 32.2512 28.1936 32.4586 28.1376V27.9549H30.8138V28.1376C31.2165 28.1835 31.4154 28.3473 31.4154 28.6402C31.4154 28.7623 31.3704 28.9329 31.2859 29.1504C31.2017 29.3681 31.0888 29.5785 30.9433 29.7824C30.5387 29.2083 30.1116 28.6157 29.6564 28.0006C30.3912 27.6309 30.7529 27.2515 30.7529 26.8584C30.7529 26.6057 30.6477 26.3972 30.4255 26.2416C30.2029 26.0859 29.9477 26.0131 29.6716 26.0131ZM30.1361 26.3939C30.0215 26.2667 29.8737 26.2035 29.6868 26.2035C29.5016 26.2035 29.3569 26.2645 29.2452 26.3863C29.1333 26.5083 29.0777 26.6548 29.0777 26.8355C29.0777 27.085 29.229 27.426 29.5422 27.8559C30.052 27.5582 30.3113 27.2348 30.3113 26.8888C30.3112 26.6825 30.2499 26.5213 30.1361 26.3939ZM30.5549 30.3078C30.0171 29.4886 29.5503 28.8284 29.1614 28.3204C28.8933 28.484 28.6836 28.6727 28.537 28.8915C28.3896 29.1103 28.3162 29.3194 28.3162 29.5235C28.3162 29.8383 28.4427 30.1422 28.6969 30.422C28.9512 30.7022 29.2439 30.8409 29.565 30.8409C29.9216 30.8409 30.2519 30.6604 30.5549 30.3078ZM35.4283 26.3482C35.8028 26.1382 36.2144 26.036 36.6619 26.036C37.0313 26.036 37.3664 26.1125 37.667 26.2644C37.9671 26.4163 38.1966 26.5823 38.3448 26.767C38.4522 26.5599 38.5125 26.3417 38.5351 26.1197H38.7026L38.7483 28.0006H38.5808C38.4713 27.3332 38.2481 26.8704 37.9107 26.6071C37.5733 26.3438 37.1917 26.2111 36.7685 26.2111C36.2499 26.2111 35.8406 26.4196 35.5349 26.8431C35.2298 27.2661 35.0781 27.8755 35.0781 28.663C35.0781 29.4088 35.2401 29.9787 35.573 30.3764C35.9067 30.7737 36.3256 30.9703 36.8218 30.9703C37.0873 30.9703 37.3589 30.9092 37.6366 30.7799C37.9135 30.6507 38.1299 30.434 38.2915 30.1251C38.4532 29.8164 38.5515 29.5146 38.5808 29.2265H38.7483V30.9703H38.5808C38.5363 30.7717 38.4599 30.5965 38.3448 30.4449C37.9095 30.9361 37.3535 31.1835 36.6771 31.1835C35.9623 31.1835 35.3715 30.9602 34.9181 30.5058C34.4645 30.0514 34.2404 29.4487 34.2404 28.7011C34.2404 28.2102 34.3437 27.7486 34.5526 27.3152C34.7618 26.8816 35.0539 26.5582 35.4283 26.3482ZM41.7485 27.1934C41.159 27.1934 40.6731 27.369 40.2789 27.7264C39.8847 28.0836 39.6849 28.5601 39.6849 29.1504C39.6849 29.7559 39.8751 30.2383 40.2637 30.6048C40.6522 30.9718 41.1498 31.1607 41.7561 31.1607C42.3795 31.1607 42.8817 30.9718 43.2639 30.6048C43.6458 30.2383 43.8426 29.7654 43.8426 29.1732C43.8426 28.5621 43.6397 28.0801 43.241 27.7264C42.842 27.373 42.3431 27.1934 41.7485 27.1934ZM42.8222 27.8102C42.5773 27.4933 42.2217 27.3305 41.7561 27.3305C41.2975 27.3305 40.9418 27.4856 40.6977 27.795C40.4536 28.1044 40.3322 28.5674 40.3322 29.1732C40.3322 29.7884 40.4536 30.2429 40.6977 30.5515C40.9418 30.8601 41.3133 31.016 41.8018 31.016C42.2299 31.016 42.5657 30.8601 42.8146 30.5515C43.063 30.2429 43.1877 29.7846 43.1877 29.1732C43.1877 28.5786 43.0677 28.1271 42.8222 27.8102ZM44.2842 30.4753C44.366 30.3933 44.4663 30.3535 44.5812 30.3535C44.6987 30.3535 44.7955 30.3933 44.8782 30.4753C44.96 30.5574 45 30.6577 45 30.7723C45 30.8896 44.9616 30.9869 44.8782 31.0693C44.7947 31.1511 44.6961 31.1911 44.5812 31.1911C44.4642 31.1911 44.3647 31.154 44.2842 31.0693C44.2035 30.9845 44.1624 30.8848 44.1624 30.7723C44.1624 30.6577 44.2019 30.5574 44.2842 30.4753Z" fill="#84b9ca"/>
</svg>
